<?xml version="1.0" encoding="UTF-8"?>
<svg width="240px" height="40px" viewBox="0 0 240 40" version="1.1" xmlns="http://www.w3.org/2000/svg" xmlns:xlink="http://www.w3.org/1999/xlink">
    <title>Booking form</title>
    <g id="Page-1" stroke="none" stroke-width="1" fill="none" fill-rule="evenodd">
        <g id="Booking-form">
            <g id="complex-problems" transform="translate(80.000000, 0.000000)" fill-rule="nonzero">
                <g id="Group-2" transform="translate(2.000000, 2.000000)">
                    <path d="M22.4101208,-0.15 C23.8884567,-0.15 25.2454272,0.407805454 26.2751537,1.32781366 C27.2945092,2.2385559 27.9930709,3.50421779 28.1715982,4.93518289 C31.6280887,7.23299484 33.580166,9.14810808 33.580166,11.097312 C33.580166,11.8289066 33.4433443,12.5483239 33.1781805,13.2228175 C34.9215562,15.1990513 35.86875,16.9879891 35.86875,18.8969073 C35.86875,20.7356904 35.0102313,22.4419885 33.5602181,23.5338643 C33.5067705,24.4842204 33.5361858,25.0641977 33.5597049,25.5284509 C33.5705846,25.7432084 33.580166,25.9337129 33.580166,26.1241425 C33.580166,28.11555 32.5826534,29.9338895 30.928529,31.0014246 C30.287709,32.5137994 29.2312279,33.7206532 27.9015727,34.5546262 C26.5441636,35.4060068 24.9014866,35.86875 23.1253033,35.86875 C21.3521646,35.86875 19.6867327,35.4133714 18.3409101,34.5747101 C16.0690295,35.3862684 14.3451582,35.86875 12.5934467,35.86875 C10.8556458,35.86875 9.2456969,35.4255951 7.96110781,34.6721608 C6.6666685,33.9129491 5.70268791,32.8387691 5.26212954,31.5850642 C3.1522103,29.9720763 2.13858398,28.1341739 2.13858398,26.1241425 C2.13858398,25.5455766 2.22645018,24.9663947 2.39717992,24.4116065 C0.715892803,22.4591751 -0.15,20.7435946 -0.15,18.8969073 C-0.15,16.9970342 0.787683755,15.2186731 2.32895847,14.1376955 C2.30899633,13.3102462 2.25411164,12.7116713 2.20855877,12.2144435 C2.17022349,11.7959987 2.13858398,11.4480743 2.13858398,11.097312 C2.13858398,9.7508177 3.07033775,8.34439196 5.00413515,6.94423906 C5.48047038,6.59932446 5.98371758,6.27992008 6.48400261,5.99311739 C7.22440071,4.82335183 7.60098439,4.07517791 7.88920573,3.50259388 C8.053325,3.17655253 8.18944421,2.90653909 8.34634078,2.64852054 C9.39295541,0.92743764 11.30133,-0.15 13.3086292,-0.15 C14.8229875,-0.15 16.2557856,0.433490334 17.3307824,1.46973006 C19.3034028,0.457635424 20.7958752,-0.15 22.4101208,-0.15 Z M22.4101208,0.734472656 C20.8242902,0.734472656 19.3814089,1.41917979 18.2567185,2.88170893 L18.2567185,2.88170893 L18.2629853,7.16647604 L20.9335966,6.79118256 L21.0090185,6.61945728 C21.1735114,6.28410138 21.4183789,5.99856732 21.7162692,5.78542446 C22.0843185,5.52208228 22.5332368,5.36922363 23.0113312,5.36922363 C23.6260021,5.36922363 24.183621,5.61947692 24.5875372,6.02357339 C24.9914175,6.42763392 25.2415594,6.9854504 25.2415594,7.60038025 C25.2415594,8.2153101 24.9914175,8.77312658 24.5875372,9.17718711 C24.183621,9.58128357 23.6260021,9.83153687 23.0113312,9.83153687 C22.531789,9.83153687 22.0809187,9.67873634 21.6883759,9.34673903 C21.3526051,9.06275716 21.0585714,8.64518895 20.8299252,8.07346619 L20.8299252,8.07346619 L18.2642949,8.07346619 L18.2759031,16.0306682 L20.441388,15.6689826 L20.5179628,15.4993755 C20.6844715,15.1682464 20.9296443,14.8868452 21.2266514,14.6770924 C21.5927503,14.4185455 22.0375375,14.2688361 22.5106677,14.2688361 C23.1253387,14.2688361 23.6829575,14.5190893 24.0868737,14.9231858 C24.490754,15.3272463 24.740896,15.8850628 24.740896,16.4999927 C24.740896,17.1149225 24.490754,17.672739 24.0868737,18.0767995 C23.6829575,18.480896 23.1253387,18.7311493 22.5106677,18.7311493 C22.0245314,18.7311493 21.5681409,18.5740493 21.1742236,18.2357988 C20.8369792,17.9462125 20.544605,17.5213738 20.3229348,16.942229 L20.3229348,16.942229 L18.2772225,16.942229 L18.2848547,22.2032973 L25.5236531,21.8120676 L25.6003185,21.6444233 C25.7667312,21.3171104 26.0101837,21.0388375 26.3045542,20.8309468 C26.6706532,20.5723999 27.1154403,20.4226904 27.5885706,20.4226904 C28.2032415,20.4226904 28.7608604,20.6729437 29.1647766,21.0770402 C29.5686569,21.4811007 29.8187988,22.0389172 29.8187988,22.653847 C29.8187988,23.2687769 29.5686569,23.8265934 29.1647766,24.2306539 C28.7608604,24.6347504 28.2032415,24.8850037 27.5885706,24.8850037 C27.1024342,24.8850037 26.6460438,24.7279036 26.2521264,24.3896532 C25.914882,24.1000668 25.6225078,23.6752282 25.4008377,23.0960834 L25.4008377,23.0960834 L18.2862209,23.0960834 L18.293625,28.2071711 L21.5682875,27.852164 L21.6500008,27.6963113 C21.8249598,27.3924083 22.0678282,27.1363214 22.35547,26.9460913 C22.7110219,26.7109492 23.1349364,26.576402 23.5834772,26.576402 C24.1981481,26.576402 24.755767,26.8266553 25.1596832,27.2307517 C25.5635635,27.6348123 25.8137054,28.1926287 25.8137054,28.8075586 C25.8137054,29.4224884 25.5635635,29.9803049 25.1596832,30.3843655 C24.755767,30.7884619 24.1981481,31.0387152 23.5834772,31.0387152 C23.0734887,31.0387152 22.597372,30.8659164 22.1977592,30.4988259 C21.8567155,30.1855379 21.5704849,29.7279759 21.3718072,29.1087579 L21.3718072,29.1087579 L18.3059673,29.1087579 L18.6396582,33.7159878 L18.8912431,33.8743323 C20.0871525,34.5903841 21.5828919,34.9842773 23.1253033,34.9842773 C24.7726289,34.9842773 26.318723,34.5333214 27.5322912,33.7490722 C28.7135747,32.9856865 29.5797289,31.9060729 29.9865574,30.5227127 C30.821685,30.1011829 31.499079,29.468812 31.9676043,28.7081052 C32.4360881,27.9474659 32.6956934,27.0585858 32.6956934,26.1242139 C32.6956934,25.3702158 32.5302482,24.6454733 32.3330864,23.2657488 C33.1504958,22.8395157 33.8133685,22.2077231 34.2718323,21.452212 C34.7302553,20.6967683 34.9842773,19.8176715 34.9842773,18.8969073 C34.9842773,18.0406492 34.7595427,17.2136797 34.2289472,16.501819 C33.7676389,15.8829161 33.07641,15.352252 32.1076712,14.9610574 C31.7928542,15.2798545 31.4131407,15.5334445 30.9200441,15.6535008 C30.4801573,15.7606019 29.9478246,15.761351 29.286303,15.5989244 C28.7294362,15.4621942 28.3072587,15.2653828 27.9846462,15.0283806 C28.3947169,15.2184006 28.8434696,15.3186185 29.3172326,15.3033294 C30.2688241,15.2726199 31.0896786,14.7833843 31.6832291,14.0496281 C32.3191794,13.2634565 32.6957375,12.1965963 32.6956934,11.0973011 C32.6956189,9.6091049 31.0423599,7.946149 27.3317889,5.65899719 C27.3317889,4.30114077 26.7798465,3.07001955 25.8886772,2.17834834 C24.9975574,1.28672657 23.7671987,0.734472656 22.4101208,0.734472656 Z M13.3086292,0.734472656 C12.386288,0.734472656 11.4937605,1.00176943 10.7281058,1.4752664 C9.96181974,1.94915381 9.32248974,2.62965425 8.90778225,3.45622799 C8.39423057,4.47963041 8.28218614,5.6331747 8.47988274,6.76160529 C8.69283625,7.97712064 9.26492468,9.16394288 10.0864146,10.131892 C10.3292917,10.4180703 10.594591,10.6858491 10.8779241,10.9316311 C10.5257994,10.7722337 10.1944245,10.577632 9.88344807,10.3499883 C8.7825325,9.54408643 7.99911092,8.36934009 7.54113607,6.41424234 L7.54113607,6.41424234 L6.85332986,6.7934868 L6.50405092,6.99890171 C5.47329115,7.62093838 4.5999108,8.2941843 3.98342887,8.9938559 C3.3803135,9.67835721 3.02305664,10.3864439 3.02305664,11.097312 C3.02305664,12.0629972 3.3027503,13.0014017 3.62342263,14.4123836 C2.74577099,14.8113333 2.02356014,15.4507913 1.52073295,16.231342 C1.01793429,17.0118484 0.734472656,17.9334669 0.734472656,18.8969073 C0.734472656,20.7494047 1.76345157,22.4295779 3.57392302,23.861275 C3.33852682,24.3154564 3.18305607,24.7957149 3.2718164,25.9457053 C3.85069669,26.4898847 4.60958188,26.7926349 5.41241455,26.7926349 C5.78702722,26.7926349 6.15055249,26.7288823 6.53820845,26.6617148 C6.94124471,26.5918825 7.36937912,26.5180772 7.95963819,26.7665857 C7.26005112,27.3419321 6.32263419,27.677179 5.41391418,27.677179 C4.8760415,27.677179 4.35918119,27.5755602 3.6299647,27.2604086 L3.6299647,27.2604086 L3.0563316,26.9747129 L3.29683341,27.7496974 L3.38615745,27.9871764 C3.83155681,29.0829543 4.67768193,30.005961 5.96535759,30.8248234 C6.22057984,32.0172491 7.0552122,33.0478791 8.22226955,33.7848404 C9.414245,34.5375367 10.9536953,34.9842773 12.5934467,34.9842773 C14.1996722,34.9842773 15.770116,34.5441421 17.4149342,33.4739086 L17.4149342,33.4739086 L17.4025339,29.1163518 L11.5516737,29.4035822 L11.4997746,29.5479917 C11.4419911,29.7432217 11.4297482,29.9478621 11.4615969,30.1460079 C11.505291,30.4178489 11.6320411,30.6774916 11.8382814,30.8838565 C12.3746608,31.4205239 13.3157578,31.3984818 14.3667824,31.5091897 C13.9486607,31.9275649 13.3695936,32.1387623 12.7894989,32.1387456 C12.2099281,32.1387289 11.6311457,31.9278899 11.2126406,31.509101 C10.7655858,31.0617516 10.5483323,30.4702595 10.5892876,29.8703011 C10.6289659,29.2890491 10.9111684,28.6977959 11.4696603,28.2243567 L11.4696603,28.2243567 L17.4005763,28.2243567 L17.3912529,23.1223376 L14.8738018,23.529865 L14.8276905,23.6409132 C14.7593809,23.784119 14.6618412,23.9056984 14.5120471,23.9793471 C14.352423,24.0578288 14.1260407,24.085741 13.7201593,23.7493178 C13.9943178,23.4750399 14.1211663,23.1478867 14.1152508,22.8235115 C14.1090088,22.4812293 13.95609,22.1444428 13.6833644,21.8777956 C13.1282893,21.3350919 12.2904338,21.286284 11.1915917,21.219335 C11.6133843,20.7972875 12.1720265,20.5657983 12.7686896,20.5657983 C13.3653315,20.5657983 13.9239055,20.7972695 14.3457405,21.2193594 C14.5194075,21.3931194 14.6633115,21.5892823 14.9232506,22.2116107 L14.9232506,22.2116107 L17.389806,22.2116107 L17.3818209,16.942229 L15.0015477,16.942229 L14.0097431,17.9638529 L15.0881104,14.6632486 L15.0881104,16.0576849 L17.3806311,16.0576849 L17.3709524,8.07339478 L14.056939,8.07339478 L14.3009496,8.60296056 L14.3968929,8.8560873 C14.6290737,9.53622282 14.6723588,10.254449 14.5375217,10.9398173 C14.387439,11.7026782 14.01673,12.4248152 13.4382535,13.0036073 C12.6195371,13.8227612 11.4687747,14.2524175 10.0856198,14.1486216 L10.0856198,14.1486216 L8.96230035,14.0814242 L6.84954778,16.2541879 L6.76059608,16.3689601 C6.59687461,16.6069667 6.51843747,16.8929534 6.52875483,17.1766448 C6.5406986,17.5050569 6.67166051,17.8305334 6.92220511,18.0812061 C7.46156157,18.6208469 8.40364464,18.5921663 9.45076436,18.7064633 C9.02836166,19.129088 8.45131669,19.3419264 7.87349225,19.3419073 C7.29608792,19.3418883 6.71926231,19.12933 6.29654773,18.7063626 C5.87836409,18.2879644 5.661053,17.7432371 5.66049891,17.1760867 C5.65996715,16.6317917 5.859407,16.0657265 6.2771822,15.5728219 L6.2771822,15.5728219 L8.24774026,12.2355743 L8.39152161,12.3886534 C8.98489375,12.9763915 9.79129352,13.2692438 10.5971307,13.2692417 C11.4072843,13.2692396 12.2181683,12.9732316 12.8127418,12.3783052 C13.4148713,11.7758289 13.7196159,10.9875526 13.7536371,10.1403313 C13.7924973,9.17260438 13.4793615,8.12862614 12.8526168,7.18892212 L12.8526168,7.18892212 L17.3645494,7.18892212 L17.1958314,2.64060274 L17.0360429,2.4448409 C16.1054169,1.36209667 14.7535491,0.734472656 13.3086292,0.734472656 Z" id="Combined-Shape" stroke="#333333" stroke-width="0.3" fill="#333333"></path>
                    <path d="M23.5834772,27.3108746 C24.4086916,27.3108746 25.0792328,27.9820006 25.0792328,28.8075586 C25.0792328,29.6331166 24.4086916,30.3042426 23.5834772,30.3042426 C22.7582627,30.3042426 22.0877216,29.6331166 22.0877216,28.8075586 C22.0877216,27.9820006 22.7582627,27.3108746 23.5834772,27.3108746 Z M27.5885706,21.1570917 C28.413785,21.1570917 29.0843262,21.8282177 29.0843262,22.6537756 C29.0843262,23.4793336 28.413785,24.1504596 27.5885706,24.1504596 C26.7633358,24.1504596 26.0928149,23.4793847 26.0928149,22.6537756 C26.0928149,21.8282177 26.7633561,21.1570917 27.5885706,21.1570917 Z M22.5107391,15.0032373 C23.3359536,15.0032373 24.0064948,15.6743633 24.0064948,16.4999213 C24.0064948,17.3254792 23.3359536,17.9966052 22.5107391,17.9966052 C21.6855247,17.9966052 21.0149835,17.3254792 21.0149835,16.4999213 C21.0149835,15.6743633 21.6855247,15.0032373 22.5107391,15.0032373 Z M23.0113312,6.10362488 C23.8365456,6.10362488 24.5070868,6.77475087 24.5070868,7.60030884 C24.5070868,8.42586681 23.8365456,9.0969928 23.0113312,9.0969928 C22.1861167,9.0969928 21.5155756,8.42586681 21.5155756,7.60030884 C21.5155756,6.77475087 22.1861167,6.10362488 23.0113312,6.10362488 Z" id="Combined-Shape" fill="#4EBE85"></path>
                    <path d="M8.93122725,23.2062361 C8.69658668,23.1859829 8.46363417,23.2653079 8.28976382,23.4239577 C8.13277409,23.5674177 8.03655457,23.7631984 8.01882993,23.9750128 C7.99941722,24.2003294 8.06862775,24.4188948 8.21464508,24.5910468 C8.35981838,24.7631988 8.56322981,24.8686841 8.78774201,24.8880934 C8.8122189,24.8897811 8.83585176,24.890625 8.86032866,24.890625 C9.07133636,24.890625 9.27305973,24.812144 9.42920543,24.6695279 C9.58619517,24.5260679 9.68241468,24.3302872 9.70098336,24.1184728 C9.70098336,24.1176289 9.70098336,24.1176289 9.70013933,24.1176289 C9.73896475,23.6543376 9.39460017,23.2450547 8.93122725,23.2062361 Z" id="Path" fill="#000000"></path>
                    <path d="M27.4465989,13.8777187 C27.4465989,13.8777187 27.4465989,13.8777187 27.4457547,13.876875 C27.2878999,13.7241563 27.0793965,13.640625 26.8599193,13.640625 C26.628624,13.640625 26.4125233,13.73175 26.2521361,13.8979688 C26.0959696,14.0599687 26.0115553,14.2734375 26.015776,14.4987188 C26.0191525,14.724 26.11032,14.9340938 26.2723955,15.0901875 C26.2723955,15.0901875 26.2723955,15.0910313 26.2732397,15.0910313 C26.4310945,15.24375 26.6395979,15.328125 26.8590751,15.328125 C27.0903704,15.328125 27.3064711,15.2361563 27.4668583,15.0699375 C27.7893211,14.7358125 27.7808796,14.2017188 27.4465989,13.8777187 Z" id="Path" fill="#000000"></path>
                </g>
            </g>
            <g id="logical-aptitude" transform="translate(40.000000, 0.000000)" stroke="#333333" stroke-linejoin="round">
                <g id="Group" transform="translate(4.000000, 2.000000)">
                    <path d="M14.9447408,0 C22.8451363,0 29.3137125,6.25953064 29.8530935,14.1864437 L31.1580078,20.8495409 C31.3702962,21.9335185 30.6636524,22.9843496 29.5796748,23.196638 C29.4530089,23.2214445 29.3242392,23.233931 29.1951671,23.2339229 L27.7680676,23.2338332 L27.7680676,23.2338332 L27.7682192,29.4277417 C27.7684333,31.084596 26.4253204,32.4277746 24.7684661,32.4278151 C24.7684083,32.4278151 24.7683504,32.4278151 24.7682926,32.4276416 L20.0548619,32.4274842 L20.0548619,32.4274842 L20.054878,35.5781249 L6.17073168,35.5781249 C5.68000996,32.0088943 5.00816077,27.8766247 4.1551841,25.8167327 C1.58134646,23.0767411 0,19.3567679 0,15.2596683 C0,6.8319862 6.69098836,0 14.9447408,0 Z" id="Path" fill="#FFFFFF"></path>
                    <circle id="Oval" fill="#DEDEDE" cx="15.1536458" cy="15.1536458" r="12.5182291"></circle>
                    <path d="M15.1536458,15.1536458 L15.1536458,17.1302083 C15.881396,17.1302083 16.4713541,17.7201664 16.4713541,18.4479166 C16.4713541,19.1756668 15.881396,19.7656249 15.1536458,19.7656249 L15.1536458,19.7656249 L15.1536458,21.7421874 L11.5651041,21.7421874 C9.90824988,21.7421874 8.56510413,20.3990417 8.56510413,18.7421874 L8.56510413,15.1536458 L15.1536458,15.1536458 Z" id="Combined-Shape" fill="#FFFFFF"></path>
                    <path d="M8.56510413,15.1536458 L8.56510413,11.5651041 C8.56510413,9.90824988 9.90824988,8.56510413 11.5651041,8.56510413 L15.1536458,8.56510413 L15.1536458,15.1536458 L13.1770833,15.1536458 C13.1770833,15.881396 12.5871252,16.4713541 11.859375,16.4713541 C11.1316247,16.4713541 10.5416666,15.881396 10.5416666,15.1536458 L10.5416666,15.1536458 L8.56510413,15.1536458 Z" id="Combined-Shape" fill="#FFFFFF"></path>
                    <path d="M18.7421874,8.56510413 C20.3990417,8.56510413 21.7421874,9.90824988 21.7421874,11.5651041 L21.7421874,15.1536458 L15.1536458,15.1536458 L15.1536458,13.1770833 C14.4258956,13.1770833 13.8359374,12.5871252 13.8359374,11.859375 C13.8359374,11.1316247 14.4258956,10.5416666 15.1536458,10.5416666 L15.1536458,10.5416666 L15.1536458,8.56510413 L18.7421874,8.56510413 Z" id="Combined-Shape" fill="#48D1EE"></path>
                    <path d="M18.4479166,13.8359374 C19.1301824,13.8359374 19.6913419,14.3544553 19.7588217,15.0189178 L19.7656249,15.1536458 L21.7421874,15.1536458 L21.7421874,18.7421874 C21.7421874,20.3990417 20.3990417,21.7421874 18.7421874,21.7421874 L15.1536458,21.7421874 L15.1536458,19.7656249 L15.2883738,19.7588217 C15.9528362,19.6913419 16.4713541,19.1301824 16.4713541,18.4479166 C16.4713541,17.7201664 15.881396,17.1302083 15.1536458,17.1302083 L15.1536458,17.1302083 L15.1536458,15.1536458 L17.1302083,15.1536458 C17.1302083,14.4258956 17.7201664,13.8359374 18.4479166,13.8359374 Z" id="Combined-Shape" fill="#FFFFFF"></path>
                </g>
            </g>
            <g id="Certificate" stroke="#333333" stroke-linejoin="round">
                <g id="Group-12" transform="translate(6.000000, 2.000000)">
                    <g id="Group-2" transform="translate(0.000000, 17.000000)" fill="#FFFFFF">
                        <polygon id="Rectangle" transform="translate(9.000000, 9.500000) rotate(-330.000000) translate(-9.000000, -9.500000) " points="3 2 15 2 15 17 9 14 3 17"></polygon>
                        <polygon id="Rectangle" transform="translate(19.000000, 9.500000) scale(-1, 1) rotate(-330.000000) translate(-19.000000, -9.500000) " points="13 2 25 2 25 17 19 14 13 17"></polygon>
                    </g>
                    <circle id="Oval" fill="#FFFFFF" cx="14" cy="12" r="12"></circle>
                    <path d="M13.8049551,16.0026314 L10.6505107,17.3390212 C10.3962452,17.4467416 10.1027977,17.3279433 9.99507736,17.0736778 C9.96323795,16.9985233 9.9502811,16.916717 9.95733817,16.8354019 L10.2535435,13.4223799 C10.2652499,13.2874938 10.2217538,13.1536267 10.1329992,13.0513824 L7.88723993,10.4642947 C7.70621944,10.2557612 7.72852309,9.93996537 7.93705653,9.75894488 C7.99869374,9.70543981 8.07249231,9.66783755 8.15200827,9.6494215 L11.4895176,8.87644773 C11.6214194,8.84589903 11.7352936,8.76316459 11.805107,8.64715866 L13.5715958,5.71186066 C13.7139845,5.47525957 14.0212164,5.39888531 14.2578175,5.54127398 C14.3277508,5.58336048 14.3863177,5.64192736 14.4284042,5.71186066 L16.194893,8.64715866 C16.2647064,8.76316459 16.3785806,8.84589903 16.5104824,8.87644773 L19.8479917,9.6494215 C20.1170133,9.71172742 20.2845894,9.98032138 20.2222835,10.2493429 C20.2038674,10.3288589 20.1662651,10.4026575 20.1127601,10.4642947 L17.8670008,13.0513824 C17.7782462,13.1536267 17.7347501,13.2874938 17.7464565,13.4223799 L18.0426618,16.8354019 C18.0665376,17.1105102 17.8628734,17.3528847 17.5877652,17.3767604 C17.5064501,17.3838175 17.4246438,17.3708607 17.3494893,17.3390212 L14.1950449,16.0026314 C14.0703781,15.9498159 13.9296219,15.9498159 13.8049551,16.0026314 Z" id="Star" fill="#FFA526"></path>
                </g>
            </g>
            <g id="curriculum" transform="translate(120.000000, 0.000000)">
                <g id="Group-6" transform="translate(7.000000, 4.000000)">
                    <rect id="Rectangle" stroke="#333333" fill="#FFFFFF" stroke-linejoin="round" x="0" y="0" width="26" height="32" rx="2"></rect>
                    <path d="M12.8049551,15.0026314 L9.65051069,16.3390212 C9.3962452,16.4467416 9.1027977,16.3279433 8.99507736,16.0736778 C8.96323795,15.9985233 8.9502811,15.916717 8.95733817,15.8354019 L9.25354355,12.4223799 C9.26524988,12.2874938 9.22175382,12.1536267 9.13299915,12.0513824 L6.88723993,9.46429466 C6.70621944,9.25576123 6.72852309,8.93996537 6.93705653,8.75894488 C6.99869374,8.70543981 7.07249231,8.66783755 7.15200827,8.6494215 L10.4895176,7.87644773 C10.6214194,7.84589903 10.7352936,7.76316459 10.805107,7.64715866 L12.5715958,4.71186066 C12.7139845,4.47525957 13.0212164,4.39888531 13.2578175,4.54127398 C13.3277508,4.58336048 13.3863177,4.64192736 13.4284042,4.71186066 L15.194893,7.64715866 C15.2647064,7.76316459 15.3785806,7.84589903 15.5104824,7.87644773 L18.8479917,8.6494215 C19.1170133,8.71172742 19.2845894,8.98032138 19.2222835,9.24934291 C19.2038674,9.32885888 19.1662651,9.40265745 19.1127601,9.46429466 L16.8670008,12.0513824 C16.7782462,12.1536267 16.7347501,12.2874938 16.7464565,12.4223799 L17.0426618,15.8354019 C17.0665376,16.1105102 16.8628734,16.3528847 16.5877652,16.3767604 C16.5064501,16.3838175 16.4246438,16.3708607 16.3494893,16.3390212 L13.1950449,15.0026314 C13.0703781,14.9498159 12.9296219,14.9498159 12.8049551,15.0026314 Z" id="Star" stroke="#333333" fill="#48D1EE" stroke-linejoin="round"></path>
                    <path d="M6.5,22 L19.5,22 C19.7761424,22 20,22.2238576 20,22.5 C20,22.7761424 19.7761424,23 19.5,23 L6.5,23 C6.22385763,23 6,22.7761424 6,22.5 C6,22.2238576 6.22385763,22 6.5,22 Z" id="Rectangle" fill="#333333"></path>
                    <path d="M9.5,26 L16.5,26 C16.7761424,26 17,26.2238576 17,26.5 C17,26.7761424 16.7761424,27 16.5,27 L9.5,27 C9.22385763,27 9,26.7761424 9,26.5 C9,26.2238576 9.22385763,26 9.5,26 Z" id="Rectangle" fill="#333333"></path>
                </g>
            </g>
            <g id="Students" transform="translate(160.000000, 0.000000)" stroke="#333333" stroke-linejoin="round">
                <g id="Group-4" transform="translate(1.000000, 7.000000)">
                    <circle id="Oval" fill="#DEDEDE" cx="11" cy="9" r="4"></circle>
                    <circle id="Oval" fill="#DEDEDE" cx="27" cy="9" r="4"></circle>
                    <path d="M6.03948372,15.4614022 L14.783547,14.2955271 C16.2278631,14.1029516 17.6967321,14.348366 19,15 C20.2694182,15.6347091 21.1981068,16.7924272 21.5423261,18.1693046 L23,24 L23,24 L1.28077641,24 C0.728491657,24 0.280776406,23.5522847 0.280776406,23 C0.280776406,22.9182382 0.290803755,22.836785 0.310633906,22.7574644 L1.01161104,19.9535558 C1.60823442,17.5670623 3.60112136,15.7865172 6.03948372,15.4614022 Z" id="Rectangle" fill="#FFFFFF"></path>
                    <circle id="Oval" fill="#FFA526" cx="19" cy="5" r="5"></circle>
                    <path d="M20.6199007,15.1955776 L21.5,15 C24.4673064,14.3405986 27.539592,14.3079184 30.5202536,14.9040507 L32.2767467,15.2553493 C34.5504022,15.7100804 36.3585418,17.434167 36.9209049,19.6836196 L37.6893661,22.7574644 C37.8233148,23.2932593 37.4975541,23.8361938 36.9617592,23.9701425 C36.8824386,23.9899727 36.8009854,24 36.7192236,24 L15,24 L15,24 L16.1006284,19.5974862 C16.6518227,17.392709 18.4013864,15.6885808 20.6199007,15.1955776 Z" id="Rectangle" fill="#FFFFFF"></path>
                    <path d="M14.8164239,13.045894 L15,13 C17.6262533,12.3434367 20.3737467,12.3434367 23,13 L23.1835761,13.045894 C25.5010132,13.6252533 27.2540162,15.5240972 27.6467258,17.8803551 L28.8059335,24.835601 C28.8967286,25.3803713 28.5287089,25.8955989 27.9839386,25.9863939 C27.9296071,25.9954492 27.8746204,26 27.8195396,26 L10.1804604,26 C9.62817567,26 9.18046042,25.5522847 9.18046042,25 C9.18046042,24.9449191 9.18501126,24.8899324 9.1940665,24.835601 L10.3532742,17.8803551 C10.7459838,15.5240972 12.4989868,13.6252533 14.8164239,13.045894 Z" id="Rectangle" fill="#FFFFFF"></path>
                </g>
            </g>
            <g id="Classes" transform="translate(200.000000, 0.000000)" stroke="#333333" stroke-linejoin="round">
                <g id="Group-45" transform="translate(4.000000, 4.000000)">
                    <path d="M17.5,19 L18.6804006,30.0170725 C18.839009,31.4974169 17.7675302,32.8260506 16.2871858,32.9846589 C16.1917984,32.994879 16.0959334,33 16,33 C14.511183,33 13.3042583,31.7930753 13.3042583,30.3042583 C13.3042583,30.2083249 13.3093793,30.11246 13.3195994,30.0170725 L14.5,19 C14.58876,18.1715729 15.3322872,17.5719542 16.1607143,17.6607143 C16.8666835,17.7363538 17.4243604,18.2940308 17.5,19 Z" id="Rectangle" fill="#DEDEDE"></path>
                    <path d="M12,30 L20,30 C21.6568542,30 23,31.3431458 23,33 L23,33 L23,33 L9,33 C9,31.3431458 10.3431458,30 12,30 Z" id="Rectangle" fill="#FFFFFF"></path>
                    <path d="M3,0 L29,0 C30.6568542,-3.04359188e-16 32,1.34314575 32,3 L32,23 C32,24.6568542 30.6568542,26 29,26 L3,26 C1.34314575,26 2.02906125e-16,24.6568542 0,23 L0,3 C-2.02906125e-16,1.34314575 1.34314575,3.04359188e-16 3,0 Z" id="Rectangle" fill="#FFFFFF"></path>
                    <path d="M4,2 L28,2 C29.1045695,2 30,2.8954305 30,4 L30,20 C30,21.1045695 29.1045695,22 28,22 L4,22 C2.8954305,22 2,21.1045695 2,20 L2,4 C2,2.8954305 2.8954305,2 4,2 Z" id="Rectangle" fill="#FFFFFF"></path>
                    <circle id="Oval" fill="#4EBE85" cx="16" cy="10" r="4"></circle>
                    <path d="M13.3885084,16 L18.6114916,16 C20.5668483,16 22.2356087,17.4136522 22.5570673,19.3424041 L23,22 L23,22 L9,22 L9.44293266,19.3424041 C9.7643913,17.4136522 11.4331517,16 13.3885084,16 Z" id="Rectangle" fill="#FFFFFF"></path>
                </g>
            </g>
        </g>
    </g>
</svg>