<svg xmlns="http://www.w3.org/2000/svg" width="168" height="80" viewBox="0 0 168 80">
    <defs>
        <filter id="7hsz685zya">
            <feColorMatrix in="SourceGraphic" values="0 0 0 0 0.305882 0 0 0 0 0.745098 0 0 0 0 0.521569 0 0 0 1.000000 0"/>
        </filter>
    </defs>
    <g fill="none" fill-rule="evenodd">
        <g>
            <g filter="url(#7hsz685zya)" transform="translate(-96 -510) translate(96 510)">
                <g fill="#FFF">
                    <g transform="rotate(90 40 40)">
                        <circle cx="1.377" cy="1.377" r="1.377"/>
                        <circle cx="12.395" cy="1.377" r="1.377"/>
                        <circle cx="23.413" cy="1.377" r="1.377"/>
                        <circle cx="34.43" cy="1.377" r="1.377"/>
                        <circle cx="45.448" cy="1.377" r="1.377"/>
                        <circle cx="56.466" cy="1.377" r="1.377"/>
                        <circle cx="67.484" cy="1.377" r="1.377"/>
                        <circle cx="78.501" cy="1.377" r="1.377"/>
                        <circle cx="1.377" cy="12.395" r="1.377"/>
                        <circle cx="12.395" cy="12.395" r="1.377"/>
                        <circle cx="23.413" cy="12.395" r="1.377"/>
                        <circle cx="34.43" cy="12.395" r="1.377"/>
                        <circle cx="45.448" cy="12.395" r="1.377"/>
                        <circle cx="56.466" cy="12.395" r="1.377"/>
                        <circle cx="67.484" cy="12.395" r="1.377"/>
                        <circle cx="78.501" cy="12.395" r="1.377"/>
                        <circle cx="1.377" cy="23.413" r="1.377"/>
                        <circle cx="12.395" cy="23.413" r="1.377"/>
                        <circle cx="23.413" cy="23.413" r="1.377"/>
                        <circle cx="34.43" cy="23.413" r="1.377"/>
                        <circle cx="45.448" cy="23.413" r="1.377"/>
                        <circle cx="56.466" cy="23.413" r="1.377"/>
                        <circle cx="67.484" cy="23.413" r="1.377"/>
                        <circle cx="78.501" cy="23.413" r="1.377"/>
                        <circle cx="1.377" cy="34.43" r="1.377"/>
                        <circle cx="12.395" cy="34.43" r="1.377"/>
                        <circle cx="23.413" cy="34.43" r="1.377"/>
                        <circle cx="34.43" cy="34.43" r="1.377"/>
                        <circle cx="45.448" cy="34.43" r="1.377"/>
                        <circle cx="56.466" cy="34.43" r="1.377"/>
                        <circle cx="67.484" cy="34.43" r="1.377"/>
                        <circle cx="78.501" cy="34.43" r="1.377"/>
                        <circle cx="1.377" cy="45.448" r="1.377"/>
                        <circle cx="12.395" cy="45.448" r="1.377"/>
                        <circle cx="23.413" cy="45.448" r="1.377"/>
                        <circle cx="34.43" cy="45.448" r="1.377"/>
                        <circle cx="45.448" cy="45.448" r="1.377"/>
                        <circle cx="56.466" cy="45.448" r="1.377"/>
                        <circle cx="67.484" cy="45.448" r="1.377"/>
                        <circle cx="78.501" cy="45.448" r="1.377"/>
                        <circle cx="1.377" cy="56.466" r="1.377"/>
                        <circle cx="12.395" cy="56.466" r="1.377"/>
                        <circle cx="23.413" cy="56.466" r="1.377"/>
                        <circle cx="34.43" cy="56.466" r="1.377"/>
                        <circle cx="45.448" cy="56.466" r="1.377"/>
                        <circle cx="56.466" cy="56.466" r="1.377"/>
                        <circle cx="67.484" cy="56.466" r="1.377"/>
                        <circle cx="78.501" cy="56.466" r="1.377"/>
                        <circle cx="1.377" cy="67.484" r="1.377"/>
                        <circle cx="12.395" cy="67.484" r="1.377"/>
                        <circle cx="23.413" cy="67.484" r="1.377"/>
                        <circle cx="34.43" cy="67.484" r="1.377"/>
                        <circle cx="45.448" cy="67.484" r="1.377"/>
                        <circle cx="56.466" cy="67.484" r="1.377"/>
                        <circle cx="67.484" cy="67.484" r="1.377"/>
                        <circle cx="78.501" cy="67.484" r="1.377"/>
                        <circle cx="1.377" cy="78.501" r="1.377"/>
                        <circle cx="12.395" cy="78.501" r="1.377"/>
                        <circle cx="23.413" cy="78.501" r="1.377"/>
                        <circle cx="34.43" cy="78.501" r="1.377"/>
                        <circle cx="45.448" cy="78.501" r="1.377"/>
                        <circle cx="56.466" cy="78.501" r="1.377"/>
                        <circle cx="67.484" cy="78.501" r="1.377"/>
                        <circle cx="78.501" cy="78.501" r="1.377"/>
                    </g>
                    <g transform="rotate(90 84 84)">
                        <circle cx="1.377" cy="1.377" r="1.377"/>
                        <circle cx="12.395" cy="1.377" r="1.377"/>
                        <circle cx="23.413" cy="1.377" r="1.377"/>
                        <circle cx="34.43" cy="1.377" r="1.377"/>
                        <circle cx="45.448" cy="1.377" r="1.377"/>
                        <circle cx="56.466" cy="1.377" r="1.377"/>
                        <circle cx="67.484" cy="1.377" r="1.377"/>
                        <circle cx="78.501" cy="1.377" r="1.377"/>
                        <circle cx="1.377" cy="12.395" r="1.377"/>
                        <circle cx="12.395" cy="12.395" r="1.377"/>
                        <circle cx="23.413" cy="12.395" r="1.377"/>
                        <circle cx="34.43" cy="12.395" r="1.377"/>
                        <circle cx="45.448" cy="12.395" r="1.377"/>
                        <circle cx="56.466" cy="12.395" r="1.377"/>
                        <circle cx="67.484" cy="12.395" r="1.377"/>
                        <circle cx="78.501" cy="12.395" r="1.377"/>
                        <circle cx="1.377" cy="23.413" r="1.377"/>
                        <circle cx="12.395" cy="23.413" r="1.377"/>
                        <circle cx="23.413" cy="23.413" r="1.377"/>
                        <circle cx="34.43" cy="23.413" r="1.377"/>
                        <circle cx="45.448" cy="23.413" r="1.377"/>
                        <circle cx="56.466" cy="23.413" r="1.377"/>
                        <circle cx="67.484" cy="23.413" r="1.377"/>
                        <circle cx="78.501" cy="23.413" r="1.377"/>
                        <circle cx="1.377" cy="34.43" r="1.377"/>
                        <circle cx="12.395" cy="34.43" r="1.377"/>
                        <circle cx="23.413" cy="34.43" r="1.377"/>
                        <circle cx="34.43" cy="34.43" r="1.377"/>
                        <circle cx="45.448" cy="34.43" r="1.377"/>
                        <circle cx="56.466" cy="34.43" r="1.377"/>
                        <circle cx="67.484" cy="34.43" r="1.377"/>
                        <circle cx="78.501" cy="34.43" r="1.377"/>
                        <circle cx="1.377" cy="45.448" r="1.377"/>
                        <circle cx="12.395" cy="45.448" r="1.377"/>
                        <circle cx="23.413" cy="45.448" r="1.377"/>
                        <circle cx="34.43" cy="45.448" r="1.377"/>
                        <circle cx="45.448" cy="45.448" r="1.377"/>
                        <circle cx="56.466" cy="45.448" r="1.377"/>
                        <circle cx="67.484" cy="45.448" r="1.377"/>
                        <circle cx="78.501" cy="45.448" r="1.377"/>
                        <circle cx="1.377" cy="56.466" r="1.377"/>
                        <circle cx="12.395" cy="56.466" r="1.377"/>
                        <circle cx="23.413" cy="56.466" r="1.377"/>
                        <circle cx="34.43" cy="56.466" r="1.377"/>
                        <circle cx="45.448" cy="56.466" r="1.377"/>
                        <circle cx="56.466" cy="56.466" r="1.377"/>
                        <circle cx="67.484" cy="56.466" r="1.377"/>
                        <circle cx="78.501" cy="56.466" r="1.377"/>
                        <circle cx="1.377" cy="67.484" r="1.377"/>
                        <circle cx="12.395" cy="67.484" r="1.377"/>
                        <circle cx="23.413" cy="67.484" r="1.377"/>
                        <circle cx="34.43" cy="67.484" r="1.377"/>
                        <circle cx="45.448" cy="67.484" r="1.377"/>
                        <circle cx="56.466" cy="67.484" r="1.377"/>
                        <circle cx="67.484" cy="67.484" r="1.377"/>
                        <circle cx="78.501" cy="67.484" r="1.377"/>
                        <circle cx="1.377" cy="78.501" r="1.377"/>
                        <circle cx="12.395" cy="78.501" r="1.377"/>
                        <circle cx="23.413" cy="78.501" r="1.377"/>
                        <circle cx="34.43" cy="78.501" r="1.377"/>
                        <circle cx="45.448" cy="78.501" r="1.377"/>
                        <circle cx="56.466" cy="78.501" r="1.377"/>
                        <circle cx="67.484" cy="78.501" r="1.377"/>
                        <circle cx="78.501" cy="78.501" r="1.377"/>
                    </g>
                </g>
            </g>
        </g>
    </g>
</svg>
