<svg xmlns="http://www.w3.org/2000/svg" width="24" height="24" viewBox="0 0 24 24">
    <g fill="#FFF" fill-rule="evenodd" stroke="#333" stroke-width="1.5" opacity=".4" transform="translate(3 2)">
        <circle cx="9" cy="5" r="4.25"/>
        <path d="M11.99 11.75c.995 0 1.924.346 2.658.935.735.589 1.274 1.42 1.49 2.393h0l.589 2.65c.075.338.006.673-.166.943-.16.251-.408.446-.713.532h0l-13.355.047c-.345 0-.657-.14-.884-.366-.21-.211-.347-.498-.364-.816h0l.618-2.995c.217-.97.756-1.8 1.489-2.388.734-.59 1.663-.935 2.659-.935h0z"/>
    </g>
</svg>
