<svg xmlns="http://www.w3.org/2000/svg" width="24" height="24" viewBox="0 0 24 24">
    <g fill="none" fill-rule="evenodd" opacity=".1">
        <g fill="#000" fill-rule="nonzero">
            <g>
                <path d="M5.317 22c1.437 0 2.527-.454 3.27-1.362.742-.908 1.114-1.936 1.114-3.083 0-1.1-.312-2.103-.935-3.012-.622-.908-1.556-1.434-2.802-1.577l-1.293-.215c.335-1.673.994-3.071 1.976-4.194.982-1.124 2.096-2.02 3.341-2.69L7.904 3c-2.3 1.243-4.191 2.904-5.676 4.983C.743 10.063 0 12.393 0 14.973c0 1.387.168 2.534.503 3.442.335.908.766 1.625 1.293 2.151.527.526 1.102.896 1.725 1.111.623.215 1.222.323 1.796.323zm14.012 0c1.437 0 2.527-.454 3.27-1.362.742-.908 1.114-1.936 1.114-3.083 0-1.1-.312-2.103-.935-3.012-.622-.908-1.556-1.434-2.802-1.577l-1.293-.215c.335-1.673.994-3.071 1.976-4.194.982-1.124 2.095-2.02 3.341-2.69L21.916 3c-2.3 1.243-4.191 2.904-5.676 4.983-1.486 2.08-2.228 4.41-2.228 6.99 0 1.387.168 2.534.503 3.442.335.908.766 1.625 1.293 2.151.527.526 1.102.896 1.725 1.111.623.215 1.221.323 1.796.323z" transform="translate(-72 -584) translate(72 584)"/>
            </g>
        </g>
    </g>
</svg>
