<svg xmlns="http://www.w3.org/2000/svg" width="97" height="56" viewBox="0 0 97 56">
    <g fill="none" fill-rule="evenodd">
        <g>
            <g transform="translate(-72 -24) translate(72 24)">
                <path fill="#383838" fill-rule="nonzero" d="M65.875 34.796c-.102.564-.433.846-.993.846h-2.793c-.556 0-.784-.282-.684-.846l.397-2.208h1.387l-.34 1.888h1.696l.326-1.817-2.308-2.627c-.17-.206-.233-.48-.17-.74l.37-2.06c.102-.567.432-.851.989-.852h2.792c.562 0 .792.28.691.84l-.372 2.072h-1.387l.314-1.746h-1.696l-.3 1.675 2.31 2.607c.168.19.223.44.168.752l-.397 2.216zM70.891 34.796c-.102.564-.437.846-1.006.846h-2.942c-.56 0-.79-.282-.69-.846l1.51-8.42h1.384l-1.45 8.072h1.869l1.45-8.072h1.386l-1.51 8.42zM76.365 31.418c-.104.576-.438.864-1.003.864h-2.247l-.603 3.356h-1.387l1.662-9.262h3.634c.564 0 .796.284.695.853l-.751 4.19zm-1.341-.325l.633-3.528h-1.695l-.634 3.528h1.696zM79.838 35.638L75.99 35.638 77.653 26.376 81.465 26.376 81.245 27.604 78.82 27.604 78.335 30.309 80.421 30.309 80.206 31.51 78.118 31.51 77.596 34.416 80.056 34.416zM84.95 35.638h-1.446l-.757-4.298.15-.834h1.363l.527-2.937h-1.749l-1.45 8.073h-1.386l1.664-9.262h3.68c.557 0 .785.284.684.853l-.605 3.367c-.069.39-.246.643-.533.757-.153.06-.46.09-.918.09l.776 4.191zM57.036 49.563h-2.92c-1.215 0-1.71-.629-1.484-1.888l.434-2.456-1.24-1.47.05-.281 1.764-1.461.438-2.466c.225-1.259.945-1.888 2.16-1.888h2.59l-.277 1.545h-1.766c-.59 0-.922.214-.999.64l-.353 1.994c-.03.22-.097.433-.198.631-.13.183-.292.34-.479.465l-.953.684.705.701c.146.13.256.296.319.48.026.198.016.4-.03.594l-.345 1.963c-.079.442.184.663.789.662h2.073l-.278 1.551zM63.998 48.475c-.13.726-.556 1.09-1.278 1.088h-3.876c-.707 0-.995-.363-.865-1.088l1.743-9.723c.131-.73.55-1.096 1.257-1.096h3.873c.722 0 1.017.365.886 1.096l-1.74 9.723zm-1.705-.442l1.59-8.851h-2.448l-1.589 8.851h2.447zM70.792 47.318c-.127.7-.434 1.25-.923 1.648-.489.398-1.086.597-1.792.597h-3.635l2.138-11.911h3.637c.706 0 1.232.202 1.576.605.345.403.454.955.328 1.656l-1.33 7.405zm-1.743-.297l1.23-6.842c.12-.665-.168-.997-.865-.997h-1.325L66.5 48.033h1.28c.728 0 1.152-.337 1.273-1.012h-.004zM75.862 49.563L70.917 49.563 73.055 37.652 77.958 37.652 77.675 39.228 74.556 39.228 73.932 42.708 76.616 42.708 76.338 44.253 73.655 44.253 72.984 47.989 76.148 47.989zM82.454 49.563h-1.86l-.974-5.533.193-1.073h1.753l.678-3.775h-2.248L78.13 49.563h-1.784l2.139-11.911h4.735c.717 0 1.01.365.877 1.096l-.777 4.331c-.09.503-.319.828-.686.974-.196.076-.59.114-1.178.114l.997 5.396zM88.749 48.475c-.131.726-.557 1.09-1.278 1.088h-3.588c-.717 0-1.01-.363-.88-1.088l.513-2.84h1.778l-.436 2.43h2.178l.42-2.337-2.973-3.378c-.215-.249-.287-.566-.218-.951l.476-2.649c.131-.73.555-1.096 1.271-1.096H89.6c.722 0 1.018.36.89 1.08l-.48 2.662h-1.774l.403-2.246h-2.18l-.387 2.155 2.973 3.363c.215.244.287.566.215.967l-.511 2.84z"/>
                <path fill="#FF6200" fill-rule="nonzero" d="M95.128 43.517l-1.503 1.268-.563 3.148c-.194 1.087-.809 1.63-1.845 1.63h-1.284l.243-1.36c.048 0 .136 0 .264.01s.227.01.296.01c.527 0 .825-.19.893-.572l.486-2.724c.025-.185.08-.366.161-.535.106-.153.242-.284.399-.386l.82-.604-.6-.592c-.127-.108-.218-.25-.264-.41-.017-.178-.004-.358.037-.533l.417-2.333c.066-.363-.16-.545-.674-.545-.073 0-.177 0-.307.01s-.227.009-.274.009l.23-1.36h1.283c1.036 0 1.457.543 1.263 1.63l-.488 2.734 1.051 1.262-.04.243zM90.044 14.304c.241.307.076 1.264-.243 1.463-.086.04-.182.054-.275.04-1.203 0-2.405 0-3.608-.01-.205 0-.283.043-.286.266-.025 2.123-.063 4.245-.095 6.368-.01.594.22.933.68.982.373.04.633-.157.854-.431.451-.56.533-1.22.552-1.905.038-1.227.144-2.451.317-3.667.119-.863.704-.932 1.385-.793.262.054.27.307.213.506-.28 1.002-.393 2.03-.468 3.062-.064.896-.107 1.799.218 2.66.286.762.94.952 1.576.44.782-.63 1.091-1.506 1.138-2.466.055-1.11.043-2.225.065-3.336.012-.18-.028-.36-.116-.52-.095-.16-.048-.261.124-.306.688-.177 1.473-.01 1.43 1.064-.068 1.66-.067 3.32-.085 4.981 0 .41.267.81.552.881.391.098.777-.09 1.005-.498.24-.426.308-.903.42-1.367.111-.465.289-.654.59-.598.325.062.695.584.607.91-.205.762-.46 1.507-.978 2.127-.6.717-1.396.948-2.29.82-.68-.103-1.105-.547-1.314-1.195-.022-.066-.04-.132-.06-.197-.006-.013-.024-.021-.061-.054-.49.68-1.006 1.33-1.929 1.425-.922.094-1.583-.326-2.068-1.143-.53.614-1.137 1.05-1.948 1.076-.811.026-1.47-.24-1.838-1.057-.169.15-.308.281-.455.41-.513.444-1.194.645-1.867.552-.77-.09-1.427-.855-1.448-1.7-.03-1.229.012-2.465.044-3.697.01-.377.013-.755 0-1.126-.023-.614-.398-.83-.904-.476-1.018.716-1.613 1.716-1.721 2.942-.094 1.055-.068 2.12-.09 3.182-.012.585-.129.803-.472.832-.615.053-.963-.181-1.083-.729-.008-.039-.023-.077-.044-.14-1.198 1.003-2.384 1.278-3.602-.022-.54.534-1.198.852-2.004.792-.807-.06-1.412-.435-1.866-1.154-.486.605-1.065 1.011-1.819 1.091-.777.083-1.416-.185-1.89-.857-.645.566-1.358.878-2.203.794-.846-.084-1.488-.484-1.948-1.25-.891.952-1.997 1.243-3.233 1.183-1.29-.061-2.247-.657-2.895-1.75-.156 0-.25.103-.356.162-1.23.737-2.478 1.433-3.88 1.801-.182.047-.367.086-.552.121-.53.102-.876-.138-1.192-.557-1.582-2.085-2.973-4.298-4.356-6.512-.781-1.248-1.581-2.485-2.374-3.726-.126-.215-.285-.409-.471-.575-.173-.143-.134-.261.005-.4.534-.531 1.601-.417 2.001.225 1.21 1.942 2.417 3.886 3.621 5.833.072.115.149.226.234.355.543-.326 1.154-.525 1.786-.583.117-.024.238-.03.357-.017.378.095.446-.119.513-.42.546-2.41 1.095-4.818 1.56-7.245.148-.766 1.025-1.193 1.743-.871.143.063.308.136.195.34-.48.885-.563 1.878-.782 2.833-.45 1.96-.876 3.926-1.307 5.889-.297 1.342-.586 2.685-.878 4.028-.028.08-.013.168.039.234.255-.102.523-.204.784-.328.912-.422 1.778-.936 2.584-1.535.205-.149.257-.28.205-.532-.308-1.535-.052-2.967.954-4.207.679-.833 1.555-1.33 2.68-1.134.806.138 1.334.732 1.475 1.549.213 1.197-.327 2.09-1.14 2.874-.564.53-1.19.987-1.867 1.363-.246.14-.225.257-.085.455.718 1.023 2.404 1.155 3.362.263.483-.417.755-1.027.743-1.665.007-1.354.44-2.576 1.473-3.523.759-.693 1.678-1.049 2.682-1.197.215-.033.264-.119.266-.314.018-1.207.047-2.413.067-3.62.012-.207-.034-.412-.132-.595-.103-.166-.02-.252.138-.307.815-.273 1.538.192 1.538 1.055 0 1.899-.051 3.8-.078 5.699-.012.865-.017 1.73-.03 2.594-.008.59-.015 1.181-.039 1.772-.012.31.163.6.444.733.282.133.616.087.85-.12.424-.383.698-.835.693-1.448-.013-1.652.429-3.14 1.736-4.255 1.025-.875 2.244-1.222 3.582-1.149.55.03.922.614.769 1.144-.056.195-.192.23-.358.205-1.804-.32-3.896.716-4.111 3.504-.035.446-.054.89.069 1.33.185.659.682 1.032 1.273.962.532-.06 1.108-.737 1.116-1.312.013-.941.025-1.883.036-2.824.002-.103-.006-.206-.022-.307-.065-.38.045-.524.43-.549.78-.049 1.207.372 1.185 1.146-.026.975-.042 1.951-.054 2.926-.006.502.205.858.54.961.374.115.759-.052 1.052-.465.34-.478.46-1.042.637-1.589.228-.706.123-1.426.157-2.14.036-.75.098-1.503-.007-2.251-.037-.265.145-.371.361-.415.694-.142 1.268.318 1.29 1.023.007.254 0 .512 0 .77.181 0 .19-.13.236-.205.254-.478.587-.91.985-1.277.794-.697 1.996-.653 2.57.11.377.5.411 1.094.411 1.69-.014.968-.039 1.935-.048 2.902 0 .444-.07.89 0 1.33.044.279.11.55.417.653.307.102.571-.021.766-.24.615-.693.876-1.519.836-2.437-.034-.779.05-1.554.046-2.333v-2.52c-.48-.107-.983-.028-1.472-.11s-.855-.786-.655-1.228c.066-.146.184-.158.321-.152.531.024 1.063.037 1.594.066.205.012.296-.051.295-.27 0-.511.016-1.023.031-1.535.01-.322-.016-.634-.24-.935.394-.262.792-.236 1.189-.118.37.1.63.429.641.81.004.615 0 1.232-.011 1.851 0 .187.055.254.25.252 1.23-.012 2.458-.018 3.685-.016.17-.023.292-.122.435-.155zm-25.373 2.75c-.608.094-1.176.36-1.64.763-1.188 1.013-1.377 3.48-.922 4.503.133.338.384.616.707.783.804.395 1.808-.223 1.823-1.11.024-1.505.062-3.01.09-4.515.002-.136.038-.276-.058-.424zm-8.918 3.516c.269-.13.521-.292.752-.482.723-.541 1.19-1.228 1.163-2.164-.008-.259-.052-.534-.327-.649-.276-.115-.518.013-.734.183-.18.148-.324.334-.423.545-.217.446-.36.923-.425 1.415-.06.382-.062.77-.006 1.152z"/>
                <path d="M22.645 43.499h-2.04v.12h2.072c-.012-.04-.02-.078-.032-.12zM21.273 36.018h1.206v-7.731c.001-1.454 1.181-2.633 2.638-2.636h6.237c-1.275-.794-2.747-1.215-4.249-1.213h-6.41c.39.604.596 1.308.593 2.026l-.015 9.554zM23.335 10.667l-2.158-.22-.428 4.213c-.119 1.17.233 2.339.977 3.25s1.821 1.49 2.993 1.608l1.976.2c2.44.244 4.617-1.53 4.867-3.964l.423-4.212-8.639-.874-.011-.001zm5.716 5.792c-.18.637-.8 2.091-2.682 1.9-1.882-.19-2.152-1.746-2.175-2.394-.003-.072.025-.143.078-.192.053-.05.125-.074.198-.067l4.367.442c.072.008.137.047.178.107.041.06.054.134.036.204zm-.6-2.745c.051-.5.498-.864.998-.813.5.05.864.496.814.996-.05.5-.497.863-.998.812-.24-.024-.46-.142-.613-.33-.153-.186-.225-.426-.2-.665zm-3.924-1.31c.5.05.865.496.814.995-.05.5-.497.864-.997.813-.5-.05-.865-.496-.814-.996.023-.24.142-.461.329-.614.187-.153.427-.226.668-.201v.003zM21.706 45.335L22.701 45.22 21.724 45.22z"/>
                <path fill="#F16323" fill-rule="nonzero" d="M22.701 45.215l-.995.08.018-.08h-1.836c-.453 0-.82-.367-.82-.819 0-.452.367-.818.82-.818h.718v-.083l-2.924-.008c-1.779-.002-3.31-1.255-3.662-2.996-.16-.423-.24-.872-.239-1.324v-2.891c-1.6 1.9-3.61 3.416-5.881 4.43 2.89 1.694 6.696 5.109 8.448 11.77l4.24-2.33s4.92-2.923 7.355-4.935H22.7v.004zM26.889 7.21c-.766-.08-1.524.214-2.033.791l3.905.46c-.072-.135-.158-.263-.254-.382-.402-.494-.984-.806-1.618-.87z"/>
                <path fill="#F16323" fill-rule="nonzero" d="M33.074 8.97l.396.046c.354-3.639-2.308-6.878-5.952-7.242-1.155-.119-2.321.067-3.383.539-.283.278-.546.576-.788.891-.285.372-.536.77-.748 1.187-.91 1.793-.723 3.26-.723 3.26l1.154.136c.035-.07.072-.14.112-.205.795-1.376 2.326-2.157 3.909-1.997 1.583.161 2.924 1.235 3.425 2.742.04.117.07.235.103.354l1.679.197.816.092z"/>
                <ellipse cx="37.25" cy="35.55" fill="#F16323" fill-rule="nonzero" rx="4.973" ry="4.965"/>
                <g fill-rule="nonzero">
                    <path fill="#FFF" d="M.068 1.023S2.775 7.88 2.87 8.04c.097.158.33.384.549.384V4.922s-.453-.01-.718.204L.837.082l-.77.941z" transform="translate(33.83 30.6)"/>
                    <path fill="#EFF0F0" d="M6.772 1.023S4.065 7.88 3.968 8.04c-.096.158-.329.384-.548.384V4.922s.453-.01.718.204L6 .086l.772.937z" transform="translate(33.83 30.6)"/>
                </g>
                <path fill="#383838" fill-rule="nonzero" d="M29.554 31.845l-.655-.038c-.656-.038-1.004.283-1.043.963l-.103 1.71-.857.743-.008.152.766.84-.062 1.069-.052.9v.032c-.027.643.268.99.884 1.04h.043l.656.039c.075.003.144-.045.166-.117.003-.012.005-.024.006-.037l.03-.52c.003-.044-.013-.088-.043-.12-.03-.033-.073-.052-.118-.052-.083 0-.146 0-.19-.005-.044-.005-.058-.005-.086-.01-.267-.035-.396-.16-.383-.376v-.083l.093-1.619c.012-.108.005-.217-.023-.323-.048-.104-.117-.197-.205-.271l-.427-.41.47-.343c.093-.062.171-.144.23-.239.041-.108.063-.223.064-.339l.084-1.455c.013-.23.178-.336.497-.318.047 0 .113.009.198.02.045.004.09-.01.125-.038.035-.03.056-.071.06-.116l.029-.512c.002-.085-.061-.157-.146-.167zM46.953 33.034c.039-.682-.269-1.04-.923-1.076l-.656-.037c-.043-.003-.086.012-.118.04-.033.029-.052.07-.054.112l-.03.521c-.003.045.013.088.043.12.03.033.073.052.118.052h.19c.326.02.483.148.469.386l-.103 1.702c-.012.108-.004.218.023.323.048.105.118.197.205.272l.428.404-.471.344c-.093.062-.17.144-.229.24-.042.107-.063.221-.064.337l-.084 1.455c-.013.23-.179.337-.497.319-.048 0-.113-.01-.198-.02-.045-.006-.09.007-.126.036-.035.03-.056.071-.059.117l-.029.511c-.002.044.012.087.041.12.03.032.07.052.114.054l.655.037c.656.038 1.004-.283 1.043-.963l.107-1.7.857-.742.008-.152-.77-.846.11-1.966zM5.849 31.173l.61.15-.154.607c-.058.236.087.474.323.533.033.009.068.013.102.014.207.001.386-.141.432-.342l.15-.605.604.15c.034.007.068.011.103.012.16 0 .306-.086.384-.224.078-.139.076-.309-.007-.445-.059-.102-.157-.176-.272-.204l-.605-.149.15-.604c.057-.237-.087-.475-.324-.534-.033-.008-.068-.012-.102-.012-.203 0-.38.138-.429.335l-.15.612-.606-.15c-.034-.008-.068-.012-.103-.012-.223 0-.41.167-.437.389-.026.22.118.427.335.479h-.004zM39.915 21.838l.765.189-.186.763c-.073.299.11.6.41.673.044.01.088.016.133.016.257 0 .48-.175.54-.424l.19-.762.764.187c.044.011.088.017.133.016.256 0 .48-.174.54-.422.073-.3-.11-.6-.41-.674l-.762-.188.187-.762c.036-.144.013-.296-.064-.422-.077-.127-.202-.217-.346-.252-.044-.01-.089-.016-.134-.016-.256 0-.48.175-.54.424l-.189.763-.76-.188c-.043-.01-.088-.016-.133-.017-.201 0-.387.108-.486.283-.099.175-.095.39.01.562.074.125.196.216.338.251zM24.344 14.208c.366.037.719-.15.893-.474.175-.324.136-.72-.097-1.005-.233-.285-.614-.401-.967-.295-.353.106-.607.413-.643.78-.025.239.047.478.2.665.153.187.373.305.614.329zM29.265 14.706c.5.05.947-.313.998-.812.05-.5-.314-.945-.814-.996-.5-.05-.947.313-.998.813-.024.24.048.48.2.666.153.187.374.305.614.33zM28.835 16.143l-4.367-.442c-.073-.007-.146.018-.198.069-.053.05-.08.122-.076.195.026.653.288 2.209 2.177 2.4 1.89.191 2.503-1.264 2.682-1.9.022-.073.01-.15-.032-.213-.043-.063-.11-.103-.186-.109z"/>
                <path fill="#383838" fill-rule="nonzero" d="M14.633 9.786l4.912.497-.428 4.212c-.339 3.335 2.094 6.313 5.434 6.653l1.976.204c.205.02.41.032.615.032 3.12-.005 5.73-2.362 6.049-5.46l.434-4.216.396.04h.084c.42 0 .773-.319.815-.736v-.01L35.1 9.21C35.56 4.66 32.239.599 27.68.138c-4.557-.46-8.626 2.855-9.088 7.404l-.102.985-3.699-.374c-.296-.039-.59.086-.768.326-.178.24-.21.558-.085.83.125.27.389.452.687.473l.007.004zm16.929 5.968c-.25 2.435-2.427 4.208-4.867 3.964l-1.976-.2c-1.172-.118-2.249-.697-2.993-1.608-.744-.911-1.096-2.08-.977-3.25l.428-4.212 2.158.219h.015l8.635.875-.423 4.212zm-7.266-6.637c.05-.255.143-.5.273-.725.081-.141.178-.273.287-.394.467-.524 1.14-.818 1.843-.803.703.015 1.364.337 1.808.88.183.228.325.485.418.762.082.245.123.5.122.758l-4.75-.478zm-4.065-1.406c.236-2.37 1.73-4.43 3.91-5.398 1.945-.866 4.188-.75 6.034.312 1.845 1.063 3.07 2.942 3.295 5.057.046.442.048.888.005 1.33v.034l-.103.985L33.04 10l-.879-.09-1.477-.145c.017-.365-.018-.731-.102-1.088-.029-.118-.06-.236-.103-.353-.501-1.507-1.842-2.58-3.425-2.742-1.583-.16-3.114.621-3.909 1.997-.04.069-.077.138-.112.205-.185.368-.312.762-.376 1.169l-1.316-.133-1.21-.12.1-.988zM48.285 25.65H33.974c-1.817-1.826-4.29-2.852-6.869-2.85h-8.774c-.256-.054-.518-.083-.78-.084h-.008c-2.065 0-3.74 1.67-3.745 3.73l-.01 7.047c-1.68 2.687-4.17 4.773-7.111 5.96-1.756.717-3.739 1.176-5.905 1.36H.725l-.063.01h-.01c-.361.077-.626.386-.647.754-.02.369.208.706.559.823l.013.005c.016.005.033.008.05.012l.03.008.04.006.04.006H.82c.124 0 3.061.026 6.121 1.623 4.017 2.097 6.254 5.822 6.656 11.072.033.427.39.757.82.756.073 0 .145-.01.215-.029.135-.036 3.364-.93 6.629-3.347.356-.272.427-.779.16-1.138-.267-.36-.773-.438-1.137-.177-1.582 1.156-3.316 2.089-5.154 2.771-.82-6.583-4.45-9.806-7.427-11.36-.751-.39-1.533-.718-2.337-.981.656-.186 1.3-.406 1.933-.66.205-.084.41-.172.603-.261 2.27-1.015 4.28-2.53 5.881-4.431v2.89c-.001.453.08.902.24 1.325.351 1.74 1.882 2.994 3.661 2.996l2.922.009h2.04l.033.08h-2.79c-.454 0-.82.366-.82.818 0 .452.366.819.82.819h28.396c1.458-.001 2.64-1.18 2.641-2.636v-14.29c-.002-1.454-1.183-2.634-2.64-2.635zM22.48 41.858h-1.873l-2.924-.007c-1.018-.002-1.888-.732-2.065-1.733-.01-.055-.025-.109-.046-.161-.101-.25-.153-.519-.152-.79l.008-5.21v-3.834l.005-3.674c.008-1.158.95-2.092 2.11-2.091.197 0 .392.03.58.084.903.26 1.523 1.086 1.52 2.023l-.012 8.442v1.93c0 .453.367.82.82.82h2.029v4.201zm0-13.573v7.74h-1.206l.015-9.554c.003-.718-.203-1.422-.593-2.026h6.413c1.502-.001 2.975.419 4.249 1.213h-6.24c-1.455.003-2.633 1.178-2.638 2.63v-.003zm26.808 14.292c0 .551-.448.998-1 .998h-23.17c-.13 0-.259-.025-.379-.074-.34-.14-.575-.454-.615-.819V28.287c0-.552.448-.998 1-.999h23.162c.553 0 1 .447 1 .999l.002 14.289z"/>
            </g>
        </g>
    </g>
</svg>
