<?xml version="1.0" encoding="UTF-8"?>
<svg width="83px" height="20px" viewBox="0 0 83 20" version="1.1" xmlns="http://www.w3.org/2000/svg" xmlns:xlink="http://www.w3.org/1999/xlink">
    <title>Whatsapp</title>
    <defs>
        <linearGradient x1="49.9964213%" y1="100%" x2="49.9964213%" y2="0.0063695573%" id="linearGradient-1">
            <stop stop-color="#20B038" offset="0%"></stop>
            <stop stop-color="#60D66A" offset="100%"></stop>
        </linearGradient>
        <linearGradient x1="49.9862739%" y1="100%" x2="49.9862739%" y2="-0.00391325613%" id="linearGradient-2">
            <stop stop-color="#F9F9F9" offset="0%"></stop>
            <stop stop-color="#FFFFFF" offset="100%"></stop>
        </linearGradient>
    </defs>
    <g id="Page-1" stroke="none" stroke-width="1" fill="none" fill-rule="evenodd">
        <g id="WA-update-web" transform="translate(-1027.000000, -584.000000)">
            <g id="Group-20" transform="translate(776.000000, 584.000000)">
                <g id="Group-17" transform="translate(28.000000, 0.000000)">
                    <g id="Whatsapp" transform="translate(223.000000, 0.000000)">
                        <path d="M30.9040462,11.5943128 L30.8793988,11.5943128 L29.3275607,5.33838863 L27.4534104,5.33838863 L25.8797688,11.5184834 L25.8541734,11.5184834 L24.4123006,5.33364929 L22.4149133,5.33364929 L24.8189827,14.4189573 L26.8429133,14.4189573 L28.3596763,8.23507109 L28.3852717,8.23507109 L29.9247861,14.4189573 L31.9098497,14.4189573 L34.3527861,5.33364929 L32.389526,5.33364929 L30.9040462,11.5943128 Z M40.4425896,8.40663507 C40.2510451,8.16349528 39.9990129,7.9749016 39.7116994,7.85971564 C39.3319575,7.71639742 38.9276676,7.64939934 38.5219884,7.66255924 C38.1589434,7.66873938 37.8021729,7.75824598 37.4792139,7.92417062 C37.1106687,8.10902585 36.8051933,8.39896301 36.6013873,8.75734597 L36.5634682,8.75734597 L36.5634682,5.33364929 L34.7556763,5.33364929 L34.7556763,14.4189573 L36.5625202,14.4189573 L36.5625202,10.9706161 C36.5625202,10.3007899 36.6728015,9.81958926 36.8933642,9.52701422 C37.1139268,9.23443918 37.4700501,9.08815166 37.9617341,9.08815166 C38.3940116,9.08815166 38.6954682,9.22085308 38.8651561,9.48909953 C39.0348439,9.75734597 39.1192139,10.1611374 39.1192139,10.7033175 L39.1192139,14.4189573 L40.9260578,14.4189573 L40.9260578,10.3734597 C40.9293799,9.99944147 40.8931556,9.62611965 40.8179884,9.25971564 C40.7574978,8.95109363 40.6292846,8.65973358 40.4425896,8.40663507 L40.4425896,8.40663507 Z M47.8851561,12.9563981 L47.8851561,9.53364929 C47.8851561,9.13364929 47.7960462,8.81421801 47.6178266,8.57251185 C47.4394679,8.32923358 47.2036847,8.1338557 46.9314913,8.00379147 C46.6381547,7.86419459 46.3246278,7.77174683 46.002474,7.72985782 C45.6695004,7.68372094 45.3337735,7.66028612 44.9976185,7.65971564 C44.632025,7.66130499 44.2674874,7.69908807 43.909341,7.77251185 C43.5667249,7.83797775 43.2375921,7.96070732 42.9357688,8.13554502 C42.6499444,8.30267242 42.4063633,8.53325316 42.2238382,8.80947867 C42.0254159,9.12711463 41.9154522,9.49198163 41.9053179,9.86635071 L43.7121618,9.86635071 C43.746289,9.50995261 43.8651021,9.25529226 44.0686012,9.10236967 C44.2721002,8.94944708 44.5520694,8.87330174 44.9085087,8.87393365 C45.059486,8.87323969 45.2103085,8.88369466 45.3597457,8.90521327 C45.4897099,8.92337057 45.6149325,8.96650139 45.7285087,9.03222749 C45.8359287,9.09687067 45.9240017,9.18918932 45.9835145,9.29952607 C46.0533224,9.44402868 46.0859088,9.60368339 46.0783121,9.76398104 C46.0969493,9.92464776 46.0352542,10.0841855 45.9133642,10.1905213 C45.7707005,10.2996642 45.6055649,10.3757473 45.429896,10.4132701 C45.1998958,10.4687698 44.9660262,10.506793 44.730289,10.5270142 C44.4667514,10.5535545 44.199422,10.5876777 43.9283006,10.6293839 C43.6562003,10.6720877 43.3865873,10.729358 43.1206243,10.8009479 C42.8662853,10.8676697 42.6251987,10.9773001 42.4077457,11.1251185 C42.194781,11.2757491 42.0203676,11.4744989 41.8986821,11.7052133 C41.7575707,11.9915626 41.6898152,12.3084785 41.7015029,12.6274882 C41.6940131,12.929168 41.7529125,13.2288084 41.8740347,13.5052133 C41.9812319,13.7434836 42.1437246,13.95275 42.3480231,14.1156398 C42.5592874,14.280779 42.8012931,14.4022512 43.0599538,14.4729858 C43.3463152,14.5508188 43.6419849,14.5890887 43.9387283,14.5867299 C44.3447885,14.5863697 44.7485657,14.5260018 45.1369711,14.4075829 C45.5244182,14.2903668 45.8750854,14.0752243 46.1550983,13.7829384 C46.1631034,13.8921396 46.1779846,14.0007277 46.1996532,14.1080569 C46.2204454,14.2133522 46.2479937,14.3172003 46.2821272,14.4189573 L48.1145665,14.4189573 C48.0124966,14.2304385 47.9517429,14.022349 47.9363468,13.8085308 C47.9014957,13.5258348 47.8843986,13.2412327 47.8851561,12.9563981 L47.8851561,12.9563981 Z M46.0783121,11.8739336 C46.0758188,12.0102872 46.0653733,12.1463793 46.0470289,12.2815166 C46.0230997,12.458548 45.9648136,12.6292004 45.8754451,12.7838863 C45.7703531,12.961131 45.6210858,13.1080949 45.4422197,13.2104265 C45.2478844,13.3298578 44.9682312,13.3886379 44.6155838,13.3886379 C44.4747239,13.38909 44.3341285,13.3763966 44.1956301,13.3507109 C44.0695584,13.3286393 43.9486908,13.2833192 43.8391908,13.2170616 C43.7371999,13.152808 43.6538485,13.0629295 43.5974566,12.9563981 C43.5346265,12.8302903 43.5040118,12.690586 43.5083468,12.549763 C43.5031879,12.4043036 43.5337848,12.2597988 43.5974566,12.12891 C43.6549389,12.0215518 43.7355646,11.9283088 43.8335029,11.8559242 C43.9376769,11.7800257 44.0536084,11.7217464 44.1766705,11.6834123 C44.3081531,11.6415003 44.4420655,11.6076304 44.5776647,11.5819905 C44.7208092,11.557346 44.8620578,11.5345972 45.0099422,11.5184834 C45.1578266,11.5023697 45.2943353,11.4796209 45.4232601,11.4549763 C45.5480737,11.4312617 45.6712453,11.3996017 45.7920231,11.3601896 C45.8966378,11.3269368 45.9933963,11.2727583 46.0764162,11.2009479 L46.0783121,11.8739336 Z M51.2571098,5.86824645 L49.4493179,5.86824645 L49.4493179,7.84075829 L48.3563006,7.84075829 L48.3563006,9.0492891 L49.4493179,9.0492891 L49.4493179,12.9308057 C49.4378809,13.2076733 49.4948595,13.4830925 49.6152139,13.7327014 C49.718276,13.9298104 49.8746229,14.0940214 50.0664509,14.2066351 C50.271869,14.3213162 50.4969379,14.3965448 50.7300347,14.428436 C50.9930098,14.4676158 51.2585618,14.4869438 51.5244393,14.4862737 C51.7036069,14.4862737 51.8856185,14.4815166 52.0723699,14.4739336 C52.2426652,14.467194 52.4123702,14.4497823 52.5804855,14.4218009 L52.5804855,13.0199052 C52.4922076,13.0378394 52.4029397,13.0505 52.3131561,13.0578199 C52.2183584,13.0663507 52.1235607,13.07109 52.0211792,13.07109 C51.7159306,13.07109 51.5121156,13.0199052 51.4097341,12.9175355 C51.3073526,12.8151659 51.2567938,12.6116904 51.2580578,12.307109 L51.2580578,9.0492891 L52.5804855,9.0492891 L52.5804855,7.84075829 L51.2571098,7.84075829 L51.2571098,5.86824645 Z M58.7243237,11.5374408 C58.6060082,11.3310894 58.4442853,11.1528913 58.2503353,11.0151659 C58.0465752,10.8712731 57.8230651,10.7576154 57.5867514,10.6777251 C57.3339732,10.5930228 57.0770567,10.5212084 56.8169942,10.4625592 C56.5642004,10.4031596 56.3139345,10.3478673 56.0661965,10.2966825 C55.8447402,10.2520843 55.6260292,10.194802 55.4111445,10.1251185 C55.2417173,10.0731196 55.0839733,9.98878456 54.9466358,9.87677725 C54.83032,9.77938254 54.7650046,9.63409883 54.7693642,9.48246445 C54.7627862,9.3653981 54.7988176,9.2499087 54.8707977,9.15734597 C54.9381666,9.07616884 55.0230918,9.01134792 55.1191676,8.96777251 C55.2225821,8.92445923 55.3318325,8.89667067 55.4433757,8.88530806 C55.5529569,8.87362126 55.6630694,8.86761007 55.7732717,8.86729858 C56.0643007,8.8597459 56.3528237,8.92284286 56.6141272,9.05118483 C56.8511214,9.17440758 56.9828902,9.40947867 57.0075376,9.75734597 L58.7252717,9.75734597 C58.706789,9.39928142 58.5996169,9.05141938 58.4133873,8.7450237 C58.2459317,8.48470717 58.0220544,8.26539111 57.7583353,8.10331754 C57.4819693,7.9367861 57.1783885,7.82030925 56.8615491,7.75924171 C56.5203788,7.69122267 56.1732962,7.6572487 55.8254104,7.65781282 C55.475654,7.65752533 55.1266054,7.68925336 54.7826358,7.75260664 C54.4608688,7.81079405 54.1512568,7.92295934 53.8668902,8.08436019 C53.5969045,8.23902296 53.3710559,8.46027681 53.2108902,8.72701422 C53.0338564,9.04514404 52.9479209,9.40590018 52.9625202,9.76966825 C52.9546094,10.0256367 53.016547,10.2789288 53.1416879,10.5023697 C53.2605195,10.7010533 53.4225112,10.8704769 53.6156763,10.9981043 C53.8221221,11.1353538 54.0471881,11.2422877 54.284,11.3156398 C54.5367938,11.3971564 54.7930636,11.4672986 55.0528092,11.5260664 C55.5646674,11.6256317 56.068709,11.7618434 56.5610405,11.9336493 C56.9212717,12.0688784 57.1013873,12.2726698 57.1013873,12.5450237 C57.1073162,12.6871008 57.0674377,12.8273239 56.9876301,12.9450237 C56.9128762,13.0497669 56.8157257,13.1365446 56.703237,13.1990521 C56.5846608,13.2647145 56.4568098,13.3120139 56.3240462,13.3393365 C56.1923562,13.3684623 56.0579243,13.3833974 55.923052,13.3838863 C55.7494697,13.3846188 55.5764986,13.3632786 55.4083006,13.3203791 C55.2512525,13.2818086 55.1025285,13.2150029 54.9693873,13.1232227 C54.8412213,13.0330443 54.7346934,12.915521 54.6575029,12.7791469 C54.5730934,12.6254602 54.5312068,12.4520438 54.5361618,12.2767773 L52.808,12.2767773 C52.8099476,12.6634754 52.9132334,13.0429087 53.1075607,13.3772512 C53.2833699,13.6635388 53.522759,13.905495 53.8071676,14.0843602 C54.1068769,14.2669863 54.4364478,14.3953341 54.7807399,14.4635071 C55.1487183,14.539709 55.5235657,14.5778247 55.8993526,14.5772576 C56.2691448,14.5774372 56.6380739,14.5415644 57.0009017,14.4701422 C57.3417002,14.4042372 57.6673111,14.2756792 57.9612023,14.0909953 C58.5774967,13.7081176 58.9378139,13.0213083 58.9025434,12.2966825 C58.9096881,12.0324616 58.848289,11.7708927 58.7243237,11.5374408 L58.7243237,11.5374408 Z M62.3124162,5.33364929 L58.876948,14.4189573 L60.8876069,14.4189573 L61.5995376,12.3962085 L64.9970867,12.3962085 L65.683422,14.4189573 L67.7575954,14.4189573 L64.3609942,5.33364929 L62.3124162,5.33364929 Z M62.1228208,10.907109 L63.304948,7.57345972 L63.3305434,7.57345972 L64.4756994,10.907109 L62.1228208,10.907109 Z M74.003815,8.73175355 C73.755682,8.40754435 73.438712,8.1424081 73.0757457,7.95545024 C72.6608992,7.75083329 72.2024586,7.65030684 71.7400462,7.66255924 C71.3547198,7.65862598 70.9734244,7.74122503 70.6242775,7.9042654 C70.2741345,8.07493971 69.9820138,8.34493888 69.7843699,8.68056872 L69.7587746,8.68056872 L69.7587746,7.84075829 L68.0372486,7.84075829 L68.0372486,16.7232227 L69.8450405,16.7232227 L69.8450405,13.6056872 L69.865896,13.6056872 C70.0781304,13.9205243 70.370745,14.1728506 70.7133873,14.3364929 C71.0645511,14.5041963 71.449498,14.5891537 71.8386358,14.5848341 C72.2772254,14.5932647 72.7113697,14.4957155 73.104185,14.3004739 C73.4574851,14.1202183 73.7661208,13.8634295 74.0076069,13.5488152 C74.253956,13.2255933 74.4375553,12.8590802 74.5489017,12.4682464 C74.6680085,12.0544359 74.7280088,11.6258667 74.7271533,11.1952607 C74.7287262,10.7436123 74.6697418,10.2937889 74.5517457,9.85781991 C74.4430882,9.45077584 74.257058,9.06846027 74.003815,8.73175355 L74.003815,8.73175355 Z M72.8472832,11.9251185 C72.8020652,12.1621046 72.7133564,12.3886717 72.5856416,12.5933649 C72.4627886,12.7839899 72.2968572,12.9430839 72.1012254,13.0578199 C71.4251825,13.4510113 70.5596598,13.2470397 70.1303815,12.5933649 C70.001591,12.3886124 69.9110149,12.1621983 69.863052,11.9251185 C69.8080034,11.6703442 69.780355,11.4104152 69.780578,11.149763 C69.779525,10.8850184 69.8049305,10.6208309 69.8564162,10.3611374 C69.901223,10.1216615 69.9899279,9.89253359 70.1180578,9.68530806 C70.240092,9.49183117 70.4056484,9.32953971 70.601526,9.21137441 C70.8268291,9.07950303 71.0847443,9.01379976 71.3456879,9.02180095 C71.6023101,9.0149193 71.8556602,9.08063159 72.076578,9.21137441 C72.2747381,9.33255074 72.4424164,9.49761538 72.5666821,9.69383886 C72.6975151,9.90296025 72.7899705,10.133751 72.8396994,10.3753555 C72.8952382,10.6303713 72.9228919,10.8906676 72.9221871,11.1516588 C72.9224469,11.4113014 72.8973645,11.6703503 72.8472832,11.9251185 L72.8472832,11.9251185 Z M81.752578,9.85781991 C81.6439206,9.45077584 81.4578903,9.06846027 81.2046474,8.73175355 C80.9567903,8.40728033 80.6397556,8.14208994 80.276578,7.95545024 C79.8614334,7.75071887 79.4026581,7.65019037 78.9399306,7.66255924 C78.5536301,7.6580365 78.1712801,7.74065343 77.8213179,7.9042654 C77.471175,8.07493971 77.1790542,8.34493888 76.9814104,8.68056872 L76.955815,8.68056872 L76.955815,7.84075829 L75.2380809,7.84075829 L75.2380809,16.7232227 L77.0449249,16.7232227 L77.0449249,13.6056872 L77.0705202,13.6056872 C77.2820601,13.9204206 77.5740399,14.1727641 77.9161156,14.3364929 C78.267732,14.5038591 78.6529071,14.5887953 79.0423121,14.5848341 C79.4811943,14.5931559 79.9156204,14.4956165 80.3088092,14.3004739 C80.6616434,14.1199148 80.9699077,13.8631655 81.2112832,13.5488152 C81.4579968,13.2258208 81.6416321,12.8592358 81.752578,12.4682464 C81.8721364,12.0545321 81.9321457,11.6258982 81.9308199,11.1952607 C81.9319362,10.743454 81.8719869,10.2935669 81.752578,9.85781991 Z M80.0462197,11.9251185 C80.002643,12.1624253 79.9141615,12.3892332 79.785526,12.5933649 C79.6627777,12.7837455 79.497216,12.9427961 79.3020578,13.0578199 C78.6258026,13.4516228 77.7596015,13.2475894 77.3302659,12.5933649 C77.2014754,12.3886124 77.1108993,12.1621983 77.0629364,11.9251185 C77.0078878,11.6703442 76.9802393,11.4104152 76.9804527,11.149763 C76.9798815,10.8850403 77.0052826,10.6208994 77.0563006,10.3611374 C77.1016398,10.1219602 77.1899657,9.89298185 77.3169942,9.68530806 C77.4396512,9.49200912 77.6054661,9.3297824 77.8014104,9.21137441 C78.0266544,9.07935905 78.2846117,9.01364504 78.5455723,9.02180095 C78.8021944,9.0149193 79.0555446,9.08063159 79.2764624,9.21137441 C79.4746225,9.33255074 79.6423008,9.49761538 79.7665665,9.69383886 C79.8980989,9.90270704 79.9909042,10.1335696 80.0405318,10.3753555 C80.0956261,10.6304429 80.1232747,10.8906909 80.123011,11.1516588 C80.1234285,11.4113548 80.0980241,11.6704493 80.0471676,11.9251185 L80.0462197,11.9251185 Z" id="Shape" fill="#455A64" fill-rule="nonzero"></path>
                        <path d="M0.652208092,19.2909953 L1.97937572,14.4625592 C-0.127325626,10.8071299 0.484144787,6.19261158 3.47020615,3.21186885 C6.45626752,0.231126125 11.0723323,-0.372579701 14.724667,1.73996932 C18.3770017,3.85251834 20.1548806,8.1545488 19.0593264,12.2287809 C17.9637722,16.3030129 14.2679661,19.1335188 10.0485549,19.1298578 L10.0485549,19.1298578 C8.49163603,19.1291766 6.95974697,18.7381012 5.59306358,17.9924171 L0.652208092,19.2909953 Z M5.82247399,16.3090047 L6.10686705,16.4767773 C7.30040944,17.1829898 8.66168987,17.555842 10.0485549,17.5563981 L10.0485549,17.5563981 C13.5810942,17.5559875 16.6659792,15.1661643 17.5487386,11.7460963 C18.431498,8.32602823 16.8885387,4.74198069 13.7973902,3.03231427 C10.7062417,1.32264786 6.84985767,1.92040215 4.42148511,4.48561547 C1.99311255,7.05082879 1.60783133,10.933761 3.48476301,13.9260664 L3.67435838,14.2189573 L2.89132948,17.0777251 L5.82247399,16.3090047 Z" id="Shape" fill="#FFFFFF" fill-rule="nonzero"></path>
                        <path d="M0.976416185,18.9658768 L2.25334104,14.3042654 C0.219363538,10.7757772 0.808923697,6.3212548 3.69080844,3.44323512 C6.57269318,0.565215431 11.0284503,-0.0188128621 14.5548492,2.01925553 C18.081248,4.05732392 19.7991594,8.20939971 18.7434661,12.1428595 C17.6877727,16.0763193 14.1216583,18.8105539 10.0485549,18.8094787 L10.0485549,18.8094787 C8.54592621,18.8096594 7.0672163,18.4332626 5.74758382,17.7146919 L0.976416185,18.9658768 Z" id="shape_3" fill="url(#linearGradient-1)" fill-rule="nonzero"></path>
                        <path d="M0.652208092,19.2909953 L1.97937572,14.4625592 C-0.127325626,10.8071299 0.484144787,6.19261158 3.47020615,3.21186885 C6.45626752,0.231126125 11.0723323,-0.372579701 14.724667,1.73996932 C18.3770017,3.85251834 20.1548806,8.1545488 19.0593264,12.2287809 C17.9637722,16.3030129 14.2679661,19.1335188 10.0485549,19.1298578 L10.0485549,19.1298578 C8.49163603,19.1291766 6.95974697,18.7381012 5.59306358,17.9924171 L0.652208092,19.2909953 Z M5.82247399,16.3090047 L6.10686705,16.4767773 C7.30040944,17.1829898 8.66168987,17.555842 10.0485549,17.5563981 L10.0485549,17.5563981 C13.5810942,17.5559875 16.6659792,15.1661643 17.5487386,11.7460963 C18.431498,8.32602823 16.8885387,4.74198069 13.7973902,3.03231427 C10.7062417,1.32264786 6.84985767,1.92040215 4.42148511,4.48561547 C1.99311255,7.05082879 1.60783133,10.933761 3.48476301,13.9260664 L3.67435838,14.2189573 L2.89132948,17.0777251 L5.82247399,16.3090047 Z" id="Shape" fill="url(#linearGradient-2)" fill-rule="nonzero"></path>
                        <path d="M7.72316763,5.90900474 C7.54779191,5.52037915 7.36483237,5.51279621 7.19893642,5.50616114 C7.06242775,5.49763033 6.90695954,5.49763033 6.75243931,5.49763033 C6.51372429,5.50377215 6.28850884,5.60966274 6.13151445,5.78957346 C5.91727168,6.02274882 5.31530636,6.58578199 5.31530636,7.73175355 C5.31530636,8.87772512 6.15047399,9.98483412 6.26328324,10.1402844 C6.37609249,10.2957346 7.87484393,12.7222749 10.2447861,13.6559242 C12.2127861,14.4322275 12.6147283,14.2777251 13.0403699,14.2388626 C13.4660116,14.2 14.4187283,13.6758294 14.6121156,13.1317536 C14.8055029,12.5876777 14.801711,12.121327 14.7486243,12.0246445 C14.6955376,11.9279621 14.5343815,11.8691943 14.3021272,11.7526066 C14.0698728,11.636019 12.9237688,11.0729858 12.710474,10.9943128 C12.4971792,10.9156398 12.341711,10.8777251 12.1862428,11.1109005 C12.0307746,11.3440758 11.5842775,11.8691943 11.4487168,12.0236967 C11.3131561,12.1781991 11.1766474,12.1981043 10.9434451,12.0815166 C10.7102428,11.9649289 9.96039306,11.7194313 9.07024277,10.9260664 C8.56112636,10.4562902 8.12414044,9.91395367 7.7734104,9.31658768 C7.63784971,9.08436019 7.75919075,8.95829384 7.87579191,8.84265403 C7.99239306,8.72701422 8.10899422,8.57061611 8.22559538,8.43507109 C8.32144331,8.31747019 8.39967991,8.18655878 8.45784971,8.0464455 C8.5207908,7.91610437 8.5136595,7.76279929 8.43889017,7.63886256 C8.38295954,7.52132701 7.92982659,6.36966825 7.72316763,5.90900474 Z" id="Path" fill="#FFFFFF"></path>
                    </g>
                </g>
            </g>
        </g>
    </g>
</svg>